<svg width="512" height="512" viewBox="0 0 512 512" fill="none" xmlns="http://www.w3.org/2000/svg">
  <rect width="512" height="512" rx="120" fill="#0A0B10" />
  <path d="M118 300C118 238.304 168.304 188 230 188H282C343.696 188 394 238.304 394 300V322C394 369.496 355.496 408 308 408H204C156.504 408 118 369.496 118 322V300Z" fill="#1A1C24" />
  <path d="M168 278C168 241.49 197.49 212 234 212H278C314.51 212 344 241.49 344 278V292C344 310.778 328.778 326 310 326H202C183.222 326 168 310.778 168 292V278Z" fill="#FF8A2B" />
  <path d="M160 180C160 156.804 178.804 138 202 138H310C333.196 138 352 156.804 352 180V192H160V180Z" fill="#4FE1C7" />
  <circle cx="188" cy="334" r="22" fill="#FFD6A3" />
  <circle cx="324" cy="334" r="22" fill="#FFD6A3" />
  <path d="M152 96C188 74 224 64 256 64C304 64 346 86 382 120" stroke="#FFA24A" stroke-width="14" stroke-linecap="round" />
</svg>
